<svg xmlns="http://www.w3.org/2000/svg" width="284" height="84" viewBox="0 0 284 84" role="img" aria-label="perX">
  <defs>
    <linearGradient id="perxLogoDarkGold" x1="10" x2="120" y1="64" y2="20" gradientUnits="userSpaceOnUse">
      <stop stop-color="#9f7410"/>
      <stop offset=".48" stop-color="#f5b942"/>
      <stop offset="1" stop-color="#f7d77b"/>
    </linearGradient>
  </defs>
  <path d="M14 42c0-13 9.5-23 21.5-23 10 0 17 6.7 24.5 18l6 9c7.5 11.3 14.5 19 27 19 12 0 22-10 22-23S105 19 93 19c-12.5 0-19.5 7.7-27 19l-6 9C52.5 58.3 45.5 65 35.5 65 23.5 65 14 55 14 42Z" fill="none" stroke="url(#perxLogoDarkGold)" stroke-width="12" stroke-linecap="round" stroke-linejoin="round"/>
  <text x="145" y="56" font-family="Arial, Helvetica, sans-serif" font-size="48" font-weight="800" fill="#f8f8f5">per</text>
  <text x="222" y="56" font-family="Arial, Helvetica, sans-serif" font-size="48" font-weight="800" fill="#f5b942">X</text>
</svg>
